<?xml version="1.0" encoding="UTF-8"?>
<svg width="400" height="81.179" version="1.1" viewBox="0 0 105.83 21.479" xmlns="http://www.w3.org/2000/svg">
 <g transform="translate(-6.265 -66.738)">
  <path d="m34.042 71.511c-1.2383 0-2.364 0.29268-3.2646 0.85554v-5.3809h-3.1295v16.976h3.1295v-8.713c0.69794-0.58537 1.5985-0.92308 2.7017-0.92308 1.7336 0 2.6567 0.92308 2.6567 2.8143v6.8218h3.1295v-6.8218c0-3.9625-1.6435-5.6285-5.2233-5.6285zm7.97 12.45h3.1295v-12.225h-3.1295zm1.5535-13.554c0.99062 0 1.7786-0.81051 1.7786-1.8236s-0.788-1.8462-1.7786-1.8462-1.8011 0.83302-1.8011 1.8462 0.81051 1.8236 1.8011 1.8236zm14.522 0c0.99062 0 1.7786-0.81051 1.7786-1.8236s-0.788-1.8462-1.7786-1.8462-1.8011 0.83302-1.8011 1.8462 0.81051 1.8236 1.8011 1.8236zm-2.7242-3.2646c-0.24766-0.06754-1.0357-0.3152-2.2964-0.3152-2.1388 0-4.2102 0.76548-4.2102 3.985v0.92308h-1.7111v2.5891h1.7111v8.4653c0 2.0713-0.38274 2.7467-1.9812 2.7467-0.1576 0-0.29268-0.02252-0.40525-0.02252v2.5216c0.45028 0.09006 1.0582 0.18012 1.8462 0.18012 2.0263 0 3.6698-1.3058 3.6698-3.8499v-10.041h4.5479v9.6361h3.1295v-12.225h-7.6773v-0.3152c0-1.1707 0.27017-2.0488 2.0938-2.0488 0.51783 0 0.92308 0.06754 1.2833 0.11257zm16.053 12.675c-0.60788 0.92308-1.621 1.5084-2.7467 1.5084-1.9812 0-3.6023-1.576-3.6023-3.4897 0-1.9362 1.621-3.5122 3.6023-3.5122 1.1257 0 2.1388 0.58537 2.7467 1.4859l2.0263-1.8687c-1.1032-1.4859-2.8143-2.4315-4.773-2.4315-3.6923 0-6.6867 2.8143-6.6867 6.3265 0 3.4897 2.9944 6.304 6.6867 6.304 1.8912 0 3.6248-0.9456 4.728-2.454zm7.2946-8.0826h-3.152v12.225h3.152v-5.8987c0-1.5985 0.85554-3.197 3.107-3.197 0.65292 0 1.5085 0.18011 1.5085 0.18011v-3.3996c-0.24766-0.09006-0.54034-0.13508-0.76548-0.13508-1.7336 0.02252-3.0169 0.788-3.8499 1.9362zm15.085 0v8.6229c-0.72046 0.60789-1.6435 0.96811-2.7692 0.96811-1.7336 0-2.6567-0.92308-2.6567-2.8143v-6.7768h-3.1295v6.7768c0 3.9625 1.6435 5.6285 5.2233 5.6285 1.2608 0 2.409-0.36023 3.3321-0.99063v0.81051h3.1295v-12.225zm15.152-4.7505v5.4484c-1.0131-0.56286-2.2514-0.92308-3.5572-0.92308-3.3996 0-6.1914 2.4991-6.1914 6.3265 0 3.7599 2.7918 6.3265 6.1914 6.3265 1.2833 0 2.5666-0.36023 3.5572-0.9456v0.74297h3.152v-16.976zm-2.9944 14.342c-2.0938 0-3.6473-1.4184-3.6473-3.4897 0-2.0038 1.5535-3.5122 3.6473-3.5122 1.1932 0 2.2514 0.40526 2.9944 1.0357v4.9081c-0.74297 0.65291-1.8236 1.0582-2.9944 1.0582z" fill="#1a1a1a" stroke-width=".18572" aria-label="hificrud"/>
  <g fill="none">
   <path d="m6.265 66.738h21.479v21.479h-21.479z" stroke-width="1.9146"/>
   <g stroke="currentColor" stroke-linecap="round">
    <path d="m18.347 86.883h-2.6848" stroke-width="2.5528"/>
    <path d="m14.22 82.847c-4.8067-8.1115 0.76014-13.38 2.3727-14.626a0.67121 0.67121 0 0 1 0.82391 0c1.6126 1.2459 7.1794 6.5141 2.3727 14.626z" stroke-linejoin="round" stroke-width="1.9146"/>
    <path d="m21.689 76.041 2.543 3.0506a0.67121 0.67121 0 0 1 0.13928 0.57556l-1.037 4.6674a0.67121 0.67121 0 0 1-1.0748 0.37839l-2.4709-1.866m-7.4697-6.806-2.543 3.0506a0.67121 0.67121 0 0 0-0.13928 0.57556l1.037 4.6674a0.67121 0.67121 0 0 0 1.0748 0.37839l2.4709-1.866" stroke-linejoin="round" stroke-width="1.9146"/>
   </g>
  </g>
  <path d="m17.08 77.735c0.99063 0 1.7786-0.81051 1.7786-1.8236 0-1.0131-0.788-1.8462-1.7786-1.8462-0.99062 0-1.8011 0.83302-1.8011 1.8462 0 1.0131 0.81051 1.8236 1.8011 1.8236z" fill="#1a1a1a" stroke-width=".18572"/>
 </g>
</svg>
